<mxfile host="65bd71144e">
    <diagram id="xFwx3jJbslrR0_GZQnUf" name="Page-1">
        <mxGraphModel dx="190" dy="104" grid="1" gridSize="10" guides="1" tooltips="1" connect="1" arrows="1" fold="1" page="1" pageScale="1" pageWidth="850" pageHeight="1100" math="0" shadow="0">
            <root>
                <mxCell id="0"/>
                <mxCell id="1" parent="0"/>
                <mxCell id="1076" value="" style="shape=cube;whiteSpace=wrap;html=1;boundedLbl=1;backgroundOutline=1;darkOpacity=0.05;darkOpacity2=0.1;fontSize=10;strokeColor=#000000;size=10;fillColor=#d0cee2;" vertex="1" parent="1">
                    <mxGeometry x="520" y="180" width="30" height="30" as="geometry"/>
                </mxCell>
                <mxCell id="1077" value="" style="shape=cube;whiteSpace=wrap;html=1;boundedLbl=1;backgroundOutline=1;darkOpacity=0.05;darkOpacity2=0.1;fontSize=10;strokeColor=#000000;size=10;fillColor=#d0cee2;" vertex="1" parent="1">
                    <mxGeometry x="500" y="180" width="30" height="30" as="geometry"/>
                </mxCell>
                <mxCell id="1078" value="" style="shape=cube;whiteSpace=wrap;html=1;boundedLbl=1;backgroundOutline=1;darkOpacity=0.05;darkOpacity2=0.1;fontSize=10;strokeColor=#000000;size=10;fillColor=#d0cee2;" vertex="1" parent="1">
                    <mxGeometry x="480" y="180" width="30" height="30" as="geometry"/>
                </mxCell>
                <mxCell id="1079" value="" style="shape=cube;whiteSpace=wrap;html=1;boundedLbl=1;backgroundOutline=1;darkOpacity=0.05;darkOpacity2=0.1;fontSize=10;strokeColor=#000000;size=10;fillColor=#d0cee2;" vertex="1" parent="1">
                    <mxGeometry x="460" y="180" width="30" height="30" as="geometry"/>
                </mxCell>
                <mxCell id="1072" value="" style="shape=cube;whiteSpace=wrap;html=1;boundedLbl=1;backgroundOutline=1;darkOpacity=0.05;darkOpacity2=0.1;fontSize=10;strokeColor=#000000;size=10;fillColor=#d0cee2;" vertex="1" parent="1">
                    <mxGeometry x="520" y="160" width="30" height="30" as="geometry"/>
                </mxCell>
                <mxCell id="1073" value="" style="shape=cube;whiteSpace=wrap;html=1;boundedLbl=1;backgroundOutline=1;darkOpacity=0.05;darkOpacity2=0.1;fontSize=10;strokeColor=#000000;size=10;fillColor=#d0cee2;" vertex="1" parent="1">
                    <mxGeometry x="500" y="160" width="30" height="30" as="geometry"/>
                </mxCell>
                <mxCell id="1074" value="" style="shape=cube;whiteSpace=wrap;html=1;boundedLbl=1;backgroundOutline=1;darkOpacity=0.05;darkOpacity2=0.1;fontSize=10;strokeColor=#000000;size=10;fillColor=#d0cee2;" vertex="1" parent="1">
                    <mxGeometry x="480" y="160" width="30" height="30" as="geometry"/>
                </mxCell>
                <mxCell id="1075" value="" style="shape=cube;whiteSpace=wrap;html=1;boundedLbl=1;backgroundOutline=1;darkOpacity=0.05;darkOpacity2=0.1;fontSize=10;strokeColor=#000000;size=10;fillColor=#d0cee2;" vertex="1" parent="1">
                    <mxGeometry x="460" y="160" width="30" height="30" as="geometry"/>
                </mxCell>
                <mxCell id="1068" value="" style="shape=cube;whiteSpace=wrap;html=1;boundedLbl=1;backgroundOutline=1;darkOpacity=0.05;darkOpacity2=0.1;fontSize=10;strokeColor=#000000;size=10;fillColor=#d0cee2;" vertex="1" parent="1">
                    <mxGeometry x="520" y="140" width="30" height="30" as="geometry"/>
                </mxCell>
                <mxCell id="1069" value="" style="shape=cube;whiteSpace=wrap;html=1;boundedLbl=1;backgroundOutline=1;darkOpacity=0.05;darkOpacity2=0.1;fontSize=10;strokeColor=#000000;size=10;fillColor=#d0cee2;" vertex="1" parent="1">
                    <mxGeometry x="500" y="140" width="30" height="30" as="geometry"/>
                </mxCell>
                <mxCell id="1070" value="" style="shape=cube;whiteSpace=wrap;html=1;boundedLbl=1;backgroundOutline=1;darkOpacity=0.05;darkOpacity2=0.1;fontSize=10;strokeColor=#000000;size=10;fillColor=#d0cee2;" vertex="1" parent="1">
                    <mxGeometry x="480" y="140" width="30" height="30" as="geometry"/>
                </mxCell>
                <mxCell id="1071" value="" style="shape=cube;whiteSpace=wrap;html=1;boundedLbl=1;backgroundOutline=1;darkOpacity=0.05;darkOpacity2=0.1;fontSize=10;strokeColor=#000000;size=10;fillColor=#d0cee2;" vertex="1" parent="1">
                    <mxGeometry x="460" y="140" width="30" height="30" as="geometry"/>
                </mxCell>
                <mxCell id="1014" value="" style="shape=cube;whiteSpace=wrap;html=1;boundedLbl=1;backgroundOutline=1;darkOpacity=0.05;darkOpacity2=0.1;fontSize=10;strokeColor=#000000;size=10;fillColor=#d0cee2;" vertex="1" parent="1">
                    <mxGeometry x="520" y="120" width="30" height="30" as="geometry"/>
                </mxCell>
                <mxCell id="1015" value="" style="shape=cube;whiteSpace=wrap;html=1;boundedLbl=1;backgroundOutline=1;darkOpacity=0.05;darkOpacity2=0.1;fontSize=10;strokeColor=#000000;size=10;fillColor=#d0cee2;" vertex="1" parent="1">
                    <mxGeometry x="500" y="120" width="30" height="30" as="geometry"/>
                </mxCell>
                <mxCell id="1016" value="" style="shape=cube;whiteSpace=wrap;html=1;boundedLbl=1;backgroundOutline=1;darkOpacity=0.05;darkOpacity2=0.1;fontSize=10;strokeColor=#000000;size=10;fillColor=#d0cee2;" vertex="1" parent="1">
                    <mxGeometry x="480" y="120" width="30" height="30" as="geometry"/>
                </mxCell>
                <mxCell id="1017" value="" style="shape=cube;whiteSpace=wrap;html=1;boundedLbl=1;backgroundOutline=1;darkOpacity=0.05;darkOpacity2=0.1;fontSize=10;strokeColor=#000000;size=10;fillColor=#d0cee2;" vertex="1" parent="1">
                    <mxGeometry x="460" y="120" width="30" height="30" as="geometry"/>
                </mxCell>
                <mxCell id="1080" value="" style="shape=cube;whiteSpace=wrap;html=1;boundedLbl=1;backgroundOutline=1;darkOpacity=0.05;darkOpacity2=0.1;fontSize=10;strokeColor=#000000;size=10;fillColor=#d0cee2;" vertex="1" parent="1">
                    <mxGeometry x="530" y="190" width="30" height="30" as="geometry"/>
                </mxCell>
                <mxCell id="1081" value="" style="shape=cube;whiteSpace=wrap;html=1;boundedLbl=1;backgroundOutline=1;darkOpacity=0.05;darkOpacity2=0.1;fontSize=10;strokeColor=#000000;size=10;fillColor=#d0cee2;" vertex="1" parent="1">
                    <mxGeometry x="510" y="190" width="30" height="30" as="geometry"/>
                </mxCell>
                <mxCell id="1082" value="" style="shape=cube;whiteSpace=wrap;html=1;boundedLbl=1;backgroundOutline=1;darkOpacity=0.05;darkOpacity2=0.1;fontSize=10;strokeColor=#000000;size=10;fillColor=#d0cee2;" vertex="1" parent="1">
                    <mxGeometry x="490" y="190" width="30" height="30" as="geometry"/>
                </mxCell>
                <mxCell id="1083" value="" style="shape=cube;whiteSpace=wrap;html=1;boundedLbl=1;backgroundOutline=1;darkOpacity=0.05;darkOpacity2=0.1;fontSize=10;strokeColor=#000000;size=10;fillColor=#d0cee2;" vertex="1" parent="1">
                    <mxGeometry x="470" y="190" width="30" height="30" as="geometry"/>
                </mxCell>
                <mxCell id="1084" value="" style="shape=cube;whiteSpace=wrap;html=1;boundedLbl=1;backgroundOutline=1;darkOpacity=0.05;darkOpacity2=0.1;fontSize=10;strokeColor=#000000;size=10;fillColor=#d0cee2;" vertex="1" parent="1">
                    <mxGeometry x="530" y="170" width="30" height="30" as="geometry"/>
                </mxCell>
                <mxCell id="1085" value="" style="shape=cube;whiteSpace=wrap;html=1;boundedLbl=1;backgroundOutline=1;darkOpacity=0.05;darkOpacity2=0.1;fontSize=10;strokeColor=#000000;size=10;fillColor=#d0cee2;" vertex="1" parent="1">
                    <mxGeometry x="510" y="170" width="30" height="30" as="geometry"/>
                </mxCell>
                <mxCell id="1086" value="" style="shape=cube;whiteSpace=wrap;html=1;boundedLbl=1;backgroundOutline=1;darkOpacity=0.05;darkOpacity2=0.1;fontSize=10;strokeColor=#000000;size=10;fillColor=#d0cee2;" vertex="1" parent="1">
                    <mxGeometry x="490" y="170" width="30" height="30" as="geometry"/>
                </mxCell>
                <mxCell id="1087" value="" style="shape=cube;whiteSpace=wrap;html=1;boundedLbl=1;backgroundOutline=1;darkOpacity=0.05;darkOpacity2=0.1;fontSize=10;strokeColor=#000000;size=10;fillColor=#d0cee2;" vertex="1" parent="1">
                    <mxGeometry x="470" y="170" width="30" height="30" as="geometry"/>
                </mxCell>
                <mxCell id="1088" value="" style="shape=cube;whiteSpace=wrap;html=1;boundedLbl=1;backgroundOutline=1;darkOpacity=0.05;darkOpacity2=0.1;fontSize=10;strokeColor=#000000;size=10;fillColor=#d0cee2;" vertex="1" parent="1">
                    <mxGeometry x="530" y="150" width="30" height="30" as="geometry"/>
                </mxCell>
                <mxCell id="1089" value="" style="shape=cube;whiteSpace=wrap;html=1;boundedLbl=1;backgroundOutline=1;darkOpacity=0.05;darkOpacity2=0.1;fontSize=10;strokeColor=#000000;size=10;fillColor=#d0cee2;" vertex="1" parent="1">
                    <mxGeometry x="510" y="150" width="30" height="30" as="geometry"/>
                </mxCell>
                <mxCell id="1090" value="" style="shape=cube;whiteSpace=wrap;html=1;boundedLbl=1;backgroundOutline=1;darkOpacity=0.05;darkOpacity2=0.1;fontSize=10;strokeColor=#000000;size=10;fillColor=#d0cee2;" vertex="1" parent="1">
                    <mxGeometry x="490" y="150" width="30" height="30" as="geometry"/>
                </mxCell>
                <mxCell id="1091" value="" style="shape=cube;whiteSpace=wrap;html=1;boundedLbl=1;backgroundOutline=1;darkOpacity=0.05;darkOpacity2=0.1;fontSize=10;strokeColor=#000000;size=10;fillColor=#d0cee2;" vertex="1" parent="1">
                    <mxGeometry x="470" y="150" width="30" height="30" as="geometry"/>
                </mxCell>
                <mxCell id="1092" value="" style="shape=cube;whiteSpace=wrap;html=1;boundedLbl=1;backgroundOutline=1;darkOpacity=0.05;darkOpacity2=0.1;fontSize=10;strokeColor=#000000;size=10;fillColor=#d0cee2;" vertex="1" parent="1">
                    <mxGeometry x="530" y="130" width="30" height="30" as="geometry"/>
                </mxCell>
                <mxCell id="1093" value="" style="shape=cube;whiteSpace=wrap;html=1;boundedLbl=1;backgroundOutline=1;darkOpacity=0.05;darkOpacity2=0.1;fontSize=10;strokeColor=#000000;size=10;fillColor=#d0cee2;" vertex="1" parent="1">
                    <mxGeometry x="510" y="130" width="30" height="30" as="geometry"/>
                </mxCell>
                <mxCell id="1094" value="" style="shape=cube;whiteSpace=wrap;html=1;boundedLbl=1;backgroundOutline=1;darkOpacity=0.05;darkOpacity2=0.1;fontSize=10;strokeColor=#000000;size=10;fillColor=#d0cee2;" vertex="1" parent="1">
                    <mxGeometry x="490" y="130" width="30" height="30" as="geometry"/>
                </mxCell>
                <mxCell id="1095" value="" style="shape=cube;whiteSpace=wrap;html=1;boundedLbl=1;backgroundOutline=1;darkOpacity=0.05;darkOpacity2=0.1;fontSize=10;strokeColor=#000000;size=10;fillColor=#d0cee2;" vertex="1" parent="1">
                    <mxGeometry x="470" y="130" width="30" height="30" as="geometry"/>
                </mxCell>
                <mxCell id="1096" value="" style="shape=cube;whiteSpace=wrap;html=1;boundedLbl=1;backgroundOutline=1;darkOpacity=0.05;darkOpacity2=0.1;fontSize=10;strokeColor=#000000;size=10;fillColor=#b1ddf0;" vertex="1" parent="1">
                    <mxGeometry x="520" y="300" width="30" height="30" as="geometry"/>
                </mxCell>
                <mxCell id="1097" value="" style="shape=cube;whiteSpace=wrap;html=1;boundedLbl=1;backgroundOutline=1;darkOpacity=0.05;darkOpacity2=0.1;fontSize=10;strokeColor=#000000;size=10;fillColor=#b1ddf0;" vertex="1" parent="1">
                    <mxGeometry x="500" y="300" width="30" height="30" as="geometry"/>
                </mxCell>
                <mxCell id="1098" value="" style="shape=cube;whiteSpace=wrap;html=1;boundedLbl=1;backgroundOutline=1;darkOpacity=0.05;darkOpacity2=0.1;fontSize=10;strokeColor=#000000;size=10;fillColor=#b1ddf0;" vertex="1" parent="1">
                    <mxGeometry x="480" y="300" width="30" height="30" as="geometry"/>
                </mxCell>
                <mxCell id="1099" value="" style="shape=cube;whiteSpace=wrap;html=1;boundedLbl=1;backgroundOutline=1;darkOpacity=0.05;darkOpacity2=0.1;fontSize=10;strokeColor=#000000;size=10;fillColor=#b1ddf0;" vertex="1" parent="1">
                    <mxGeometry x="460" y="300" width="30" height="30" as="geometry"/>
                </mxCell>
                <mxCell id="1100" value="" style="shape=cube;whiteSpace=wrap;html=1;boundedLbl=1;backgroundOutline=1;darkOpacity=0.05;darkOpacity2=0.1;fontSize=10;strokeColor=#000000;size=10;fillColor=#b1ddf0;" vertex="1" parent="1">
                    <mxGeometry x="520" y="280" width="30" height="30" as="geometry"/>
                </mxCell>
                <mxCell id="1101" value="" style="shape=cube;whiteSpace=wrap;html=1;boundedLbl=1;backgroundOutline=1;darkOpacity=0.05;darkOpacity2=0.1;fontSize=10;strokeColor=#000000;size=10;fillColor=#b1ddf0;" vertex="1" parent="1">
                    <mxGeometry x="500" y="280" width="30" height="30" as="geometry"/>
                </mxCell>
                <mxCell id="1102" value="" style="shape=cube;whiteSpace=wrap;html=1;boundedLbl=1;backgroundOutline=1;darkOpacity=0.05;darkOpacity2=0.1;fontSize=10;strokeColor=#000000;size=10;fillColor=#b1ddf0;" vertex="1" parent="1">
                    <mxGeometry x="480" y="280" width="30" height="30" as="geometry"/>
                </mxCell>
                <mxCell id="1103" value="" style="shape=cube;whiteSpace=wrap;html=1;boundedLbl=1;backgroundOutline=1;darkOpacity=0.05;darkOpacity2=0.1;fontSize=10;strokeColor=#000000;size=10;fillColor=#b1ddf0;" vertex="1" parent="1">
                    <mxGeometry x="460" y="280" width="30" height="30" as="geometry"/>
                </mxCell>
                <mxCell id="1104" value="" style="shape=cube;whiteSpace=wrap;html=1;boundedLbl=1;backgroundOutline=1;darkOpacity=0.05;darkOpacity2=0.1;fontSize=10;strokeColor=#000000;size=10;fillColor=#b1ddf0;" vertex="1" parent="1">
                    <mxGeometry x="520" y="260" width="30" height="30" as="geometry"/>
                </mxCell>
                <mxCell id="1105" value="" style="shape=cube;whiteSpace=wrap;html=1;boundedLbl=1;backgroundOutline=1;darkOpacity=0.05;darkOpacity2=0.1;fontSize=10;strokeColor=#000000;size=10;fillColor=#b1ddf0;" vertex="1" parent="1">
                    <mxGeometry x="500" y="260" width="30" height="30" as="geometry"/>
                </mxCell>
                <mxCell id="1106" value="" style="shape=cube;whiteSpace=wrap;html=1;boundedLbl=1;backgroundOutline=1;darkOpacity=0.05;darkOpacity2=0.1;fontSize=10;strokeColor=#000000;size=10;fillColor=#b1ddf0;" vertex="1" parent="1">
                    <mxGeometry x="480" y="260" width="30" height="30" as="geometry"/>
                </mxCell>
                <mxCell id="1107" value="" style="shape=cube;whiteSpace=wrap;html=1;boundedLbl=1;backgroundOutline=1;darkOpacity=0.05;darkOpacity2=0.1;fontSize=10;strokeColor=#000000;size=10;fillColor=#b1ddf0;" vertex="1" parent="1">
                    <mxGeometry x="460" y="260" width="30" height="30" as="geometry"/>
                </mxCell>
                <mxCell id="1108" value="" style="shape=cube;whiteSpace=wrap;html=1;boundedLbl=1;backgroundOutline=1;darkOpacity=0.05;darkOpacity2=0.1;fontSize=10;strokeColor=#000000;size=10;fillColor=#b1ddf0;" vertex="1" parent="1">
                    <mxGeometry x="520" y="240" width="30" height="30" as="geometry"/>
                </mxCell>
                <mxCell id="1109" value="" style="shape=cube;whiteSpace=wrap;html=1;boundedLbl=1;backgroundOutline=1;darkOpacity=0.05;darkOpacity2=0.1;fontSize=10;strokeColor=#000000;size=10;fillColor=#b1ddf0;" vertex="1" parent="1">
                    <mxGeometry x="500" y="240" width="30" height="30" as="geometry"/>
                </mxCell>
                <mxCell id="1110" value="" style="shape=cube;whiteSpace=wrap;html=1;boundedLbl=1;backgroundOutline=1;darkOpacity=0.05;darkOpacity2=0.1;fontSize=10;strokeColor=#000000;size=10;fillColor=#b1ddf0;" vertex="1" parent="1">
                    <mxGeometry x="480" y="240" width="30" height="30" as="geometry"/>
                </mxCell>
                <mxCell id="1111" value="" style="shape=cube;whiteSpace=wrap;html=1;boundedLbl=1;backgroundOutline=1;darkOpacity=0.05;darkOpacity2=0.1;fontSize=10;strokeColor=#000000;size=10;fillColor=#b1ddf0;" vertex="1" parent="1">
                    <mxGeometry x="460" y="240" width="30" height="30" as="geometry"/>
                </mxCell>
                <mxCell id="1112" value="" style="shape=cube;whiteSpace=wrap;html=1;boundedLbl=1;backgroundOutline=1;darkOpacity=0.05;darkOpacity2=0.1;fontSize=10;strokeColor=#000000;size=10;fillColor=#b1ddf0;" vertex="1" parent="1">
                    <mxGeometry x="530" y="310" width="30" height="30" as="geometry"/>
                </mxCell>
                <mxCell id="1113" value="" style="shape=cube;whiteSpace=wrap;html=1;boundedLbl=1;backgroundOutline=1;darkOpacity=0.05;darkOpacity2=0.1;fontSize=10;strokeColor=#000000;size=10;fillColor=#b1ddf0;" vertex="1" parent="1">
                    <mxGeometry x="510" y="310" width="30" height="30" as="geometry"/>
                </mxCell>
                <mxCell id="1114" value="" style="shape=cube;whiteSpace=wrap;html=1;boundedLbl=1;backgroundOutline=1;darkOpacity=0.05;darkOpacity2=0.1;fontSize=10;strokeColor=#000000;size=10;fillColor=#b1ddf0;" vertex="1" parent="1">
                    <mxGeometry x="490" y="310" width="30" height="30" as="geometry"/>
                </mxCell>
                <mxCell id="1115" value="" style="shape=cube;whiteSpace=wrap;html=1;boundedLbl=1;backgroundOutline=1;darkOpacity=0.05;darkOpacity2=0.1;fontSize=10;strokeColor=#000000;size=10;fillColor=#b1ddf0;" vertex="1" parent="1">
                    <mxGeometry x="470" y="310" width="30" height="30" as="geometry"/>
                </mxCell>
                <mxCell id="1116" value="" style="shape=cube;whiteSpace=wrap;html=1;boundedLbl=1;backgroundOutline=1;darkOpacity=0.05;darkOpacity2=0.1;fontSize=10;strokeColor=#000000;size=10;fillColor=#b1ddf0;" vertex="1" parent="1">
                    <mxGeometry x="530" y="290" width="30" height="30" as="geometry"/>
                </mxCell>
                <mxCell id="1117" value="" style="shape=cube;whiteSpace=wrap;html=1;boundedLbl=1;backgroundOutline=1;darkOpacity=0.05;darkOpacity2=0.1;fontSize=10;strokeColor=#000000;size=10;fillColor=#b1ddf0;" vertex="1" parent="1">
                    <mxGeometry x="510" y="290" width="30" height="30" as="geometry"/>
                </mxCell>
                <mxCell id="1118" value="" style="shape=cube;whiteSpace=wrap;html=1;boundedLbl=1;backgroundOutline=1;darkOpacity=0.05;darkOpacity2=0.1;fontSize=10;strokeColor=#000000;size=10;fillColor=#b1ddf0;" vertex="1" parent="1">
                    <mxGeometry x="490" y="290" width="30" height="30" as="geometry"/>
                </mxCell>
                <mxCell id="1119" value="" style="shape=cube;whiteSpace=wrap;html=1;boundedLbl=1;backgroundOutline=1;darkOpacity=0.05;darkOpacity2=0.1;fontSize=10;strokeColor=#000000;size=10;fillColor=#b1ddf0;" vertex="1" parent="1">
                    <mxGeometry x="470" y="290" width="30" height="30" as="geometry"/>
                </mxCell>
                <mxCell id="1120" value="" style="shape=cube;whiteSpace=wrap;html=1;boundedLbl=1;backgroundOutline=1;darkOpacity=0.05;darkOpacity2=0.1;fontSize=10;strokeColor=#000000;size=10;fillColor=#b1ddf0;" vertex="1" parent="1">
                    <mxGeometry x="530" y="270" width="30" height="30" as="geometry"/>
                </mxCell>
                <mxCell id="1121" value="" style="shape=cube;whiteSpace=wrap;html=1;boundedLbl=1;backgroundOutline=1;darkOpacity=0.05;darkOpacity2=0.1;fontSize=10;strokeColor=#000000;size=10;fillColor=#b1ddf0;" vertex="1" parent="1">
                    <mxGeometry x="510" y="270" width="30" height="30" as="geometry"/>
                </mxCell>
                <mxCell id="1122" value="" style="shape=cube;whiteSpace=wrap;html=1;boundedLbl=1;backgroundOutline=1;darkOpacity=0.05;darkOpacity2=0.1;fontSize=10;strokeColor=#000000;size=10;fillColor=#b1ddf0;" vertex="1" parent="1">
                    <mxGeometry x="490" y="270" width="30" height="30" as="geometry"/>
                </mxCell>
                <mxCell id="1123" value="" style="shape=cube;whiteSpace=wrap;html=1;boundedLbl=1;backgroundOutline=1;darkOpacity=0.05;darkOpacity2=0.1;fontSize=10;strokeColor=#000000;size=10;fillColor=#b1ddf0;" vertex="1" parent="1">
                    <mxGeometry x="470" y="270" width="30" height="30" as="geometry"/>
                </mxCell>
                <mxCell id="1124" value="" style="shape=cube;whiteSpace=wrap;html=1;boundedLbl=1;backgroundOutline=1;darkOpacity=0.05;darkOpacity2=0.1;fontSize=10;strokeColor=#000000;size=10;fillColor=#b1ddf0;" vertex="1" parent="1">
                    <mxGeometry x="530" y="250" width="30" height="30" as="geometry"/>
                </mxCell>
                <mxCell id="1125" value="" style="shape=cube;whiteSpace=wrap;html=1;boundedLbl=1;backgroundOutline=1;darkOpacity=0.05;darkOpacity2=0.1;fontSize=10;strokeColor=#000000;size=10;fillColor=#b1ddf0;" vertex="1" parent="1">
                    <mxGeometry x="510" y="250" width="30" height="30" as="geometry"/>
                </mxCell>
                <mxCell id="1126" value="" style="shape=cube;whiteSpace=wrap;html=1;boundedLbl=1;backgroundOutline=1;darkOpacity=0.05;darkOpacity2=0.1;fontSize=10;strokeColor=#000000;size=10;fillColor=#b1ddf0;" vertex="1" parent="1">
                    <mxGeometry x="490" y="250" width="30" height="30" as="geometry"/>
                </mxCell>
                <mxCell id="1127" value="" style="shape=cube;whiteSpace=wrap;html=1;boundedLbl=1;backgroundOutline=1;darkOpacity=0.05;darkOpacity2=0.1;fontSize=10;strokeColor=#000000;size=10;fillColor=#b1ddf0;" vertex="1" parent="1">
                    <mxGeometry x="470" y="250" width="30" height="30" as="geometry"/>
                </mxCell>
                <mxCell id="1306" value="" style="shape=cube;whiteSpace=wrap;html=1;boundedLbl=1;backgroundOutline=1;darkOpacity=0.05;darkOpacity2=0.1;fontSize=10;strokeColor=#000000;size=10;fillColor=#d0cee2;" vertex="1" parent="1">
                    <mxGeometry x="330" y="220" width="30" height="30" as="geometry"/>
                </mxCell>
                <mxCell id="1307" value="" style="shape=cube;whiteSpace=wrap;html=1;boundedLbl=1;backgroundOutline=1;darkOpacity=0.05;darkOpacity2=0.1;fontSize=10;strokeColor=#000000;size=10;fillColor=#d0cee2;" vertex="1" parent="1">
                    <mxGeometry x="310" y="220" width="30" height="30" as="geometry"/>
                </mxCell>
                <mxCell id="1308" value="" style="shape=cube;whiteSpace=wrap;html=1;boundedLbl=1;backgroundOutline=1;darkOpacity=0.05;darkOpacity2=0.1;fontSize=10;strokeColor=#000000;size=10;fillColor=#d0cee2;" vertex="1" parent="1">
                    <mxGeometry x="290" y="220" width="30" height="30" as="geometry"/>
                </mxCell>
                <mxCell id="1309" value="" style="shape=cube;whiteSpace=wrap;html=1;boundedLbl=1;backgroundOutline=1;darkOpacity=0.05;darkOpacity2=0.1;fontSize=10;strokeColor=#000000;size=10;fillColor=#d0cee2;" vertex="1" parent="1">
                    <mxGeometry x="270" y="220" width="30" height="30" as="geometry"/>
                </mxCell>
                <mxCell id="1310" value="" style="shape=cube;whiteSpace=wrap;html=1;boundedLbl=1;backgroundOutline=1;darkOpacity=0.05;darkOpacity2=0.1;fontSize=10;strokeColor=#000000;size=10;fillColor=#d0cee2;" vertex="1" parent="1">
                    <mxGeometry x="330" y="200" width="30" height="30" as="geometry"/>
                </mxCell>
                <mxCell id="1311" value="" style="shape=cube;whiteSpace=wrap;html=1;boundedLbl=1;backgroundOutline=1;darkOpacity=0.05;darkOpacity2=0.1;fontSize=10;strokeColor=#000000;size=10;fillColor=#d0cee2;" vertex="1" parent="1">
                    <mxGeometry x="310" y="200" width="30" height="30" as="geometry"/>
                </mxCell>
                <mxCell id="1312" value="" style="shape=cube;whiteSpace=wrap;html=1;boundedLbl=1;backgroundOutline=1;darkOpacity=0.05;darkOpacity2=0.1;fontSize=10;strokeColor=#000000;size=10;fillColor=#d0cee2;" vertex="1" parent="1">
                    <mxGeometry x="290" y="200" width="30" height="30" as="geometry"/>
                </mxCell>
                <mxCell id="1313" value="" style="shape=cube;whiteSpace=wrap;html=1;boundedLbl=1;backgroundOutline=1;darkOpacity=0.05;darkOpacity2=0.1;fontSize=10;strokeColor=#000000;size=10;fillColor=#d0cee2;" vertex="1" parent="1">
                    <mxGeometry x="270" y="200" width="30" height="30" as="geometry"/>
                </mxCell>
                <mxCell id="1314" value="" style="shape=cube;whiteSpace=wrap;html=1;boundedLbl=1;backgroundOutline=1;darkOpacity=0.05;darkOpacity2=0.1;fontSize=10;strokeColor=#000000;size=10;fillColor=#d0cee2;" vertex="1" parent="1">
                    <mxGeometry x="330" y="180" width="30" height="30" as="geometry"/>
                </mxCell>
                <mxCell id="1315" value="" style="shape=cube;whiteSpace=wrap;html=1;boundedLbl=1;backgroundOutline=1;darkOpacity=0.05;darkOpacity2=0.1;fontSize=10;strokeColor=#000000;size=10;fillColor=#d0cee2;" vertex="1" parent="1">
                    <mxGeometry x="310" y="180" width="30" height="30" as="geometry"/>
                </mxCell>
                <mxCell id="1316" value="" style="shape=cube;whiteSpace=wrap;html=1;boundedLbl=1;backgroundOutline=1;darkOpacity=0.05;darkOpacity2=0.1;fontSize=10;strokeColor=#000000;size=10;fillColor=#d0cee2;" vertex="1" parent="1">
                    <mxGeometry x="290" y="180" width="30" height="30" as="geometry"/>
                </mxCell>
                <mxCell id="1317" value="" style="shape=cube;whiteSpace=wrap;html=1;boundedLbl=1;backgroundOutline=1;darkOpacity=0.05;darkOpacity2=0.1;fontSize=10;strokeColor=#000000;size=10;fillColor=#d0cee2;" vertex="1" parent="1">
                    <mxGeometry x="270" y="180" width="30" height="30" as="geometry"/>
                </mxCell>
                <mxCell id="1318" value="" style="shape=cube;whiteSpace=wrap;html=1;boundedLbl=1;backgroundOutline=1;darkOpacity=0.05;darkOpacity2=0.1;fontSize=10;strokeColor=#000000;size=10;fillColor=#d0cee2;" vertex="1" parent="1">
                    <mxGeometry x="330" y="160" width="30" height="30" as="geometry"/>
                </mxCell>
                <mxCell id="1319" value="" style="shape=cube;whiteSpace=wrap;html=1;boundedLbl=1;backgroundOutline=1;darkOpacity=0.05;darkOpacity2=0.1;fontSize=10;strokeColor=#000000;size=10;fillColor=#d0cee2;" vertex="1" parent="1">
                    <mxGeometry x="310" y="160" width="30" height="30" as="geometry"/>
                </mxCell>
                <mxCell id="1320" value="" style="shape=cube;whiteSpace=wrap;html=1;boundedLbl=1;backgroundOutline=1;darkOpacity=0.05;darkOpacity2=0.1;fontSize=10;strokeColor=#000000;size=10;fillColor=#d0cee2;" vertex="1" parent="1">
                    <mxGeometry x="290" y="160" width="30" height="30" as="geometry"/>
                </mxCell>
                <mxCell id="1321" value="" style="shape=cube;whiteSpace=wrap;html=1;boundedLbl=1;backgroundOutline=1;darkOpacity=0.05;darkOpacity2=0.1;fontSize=10;strokeColor=#000000;size=10;fillColor=#d0cee2;" vertex="1" parent="1">
                    <mxGeometry x="270" y="160" width="30" height="30" as="geometry"/>
                </mxCell>
                <mxCell id="1322" value="" style="shape=cube;whiteSpace=wrap;html=1;boundedLbl=1;backgroundOutline=1;darkOpacity=0.05;darkOpacity2=0.1;fontSize=10;strokeColor=#000000;size=10;fillColor=#d0cee2;" vertex="1" parent="1">
                    <mxGeometry x="340" y="230" width="30" height="30" as="geometry"/>
                </mxCell>
                <mxCell id="1323" value="" style="shape=cube;whiteSpace=wrap;html=1;boundedLbl=1;backgroundOutline=1;darkOpacity=0.05;darkOpacity2=0.1;fontSize=10;strokeColor=#000000;size=10;fillColor=#d0cee2;" vertex="1" parent="1">
                    <mxGeometry x="320" y="230" width="30" height="30" as="geometry"/>
                </mxCell>
                <mxCell id="1324" value="" style="shape=cube;whiteSpace=wrap;html=1;boundedLbl=1;backgroundOutline=1;darkOpacity=0.05;darkOpacity2=0.1;fontSize=10;strokeColor=#000000;size=10;fillColor=#d0cee2;" vertex="1" parent="1">
                    <mxGeometry x="300" y="230" width="30" height="30" as="geometry"/>
                </mxCell>
                <mxCell id="1325" value="" style="shape=cube;whiteSpace=wrap;html=1;boundedLbl=1;backgroundOutline=1;darkOpacity=0.05;darkOpacity2=0.1;fontSize=10;strokeColor=#000000;size=10;fillColor=#d0cee2;" vertex="1" parent="1">
                    <mxGeometry x="280" y="230" width="30" height="30" as="geometry"/>
                </mxCell>
                <mxCell id="1326" value="" style="shape=cube;whiteSpace=wrap;html=1;boundedLbl=1;backgroundOutline=1;darkOpacity=0.05;darkOpacity2=0.1;fontSize=10;strokeColor=#000000;size=10;fillColor=#d0cee2;" vertex="1" parent="1">
                    <mxGeometry x="340" y="210" width="30" height="30" as="geometry"/>
                </mxCell>
                <mxCell id="1327" value="" style="shape=cube;whiteSpace=wrap;html=1;boundedLbl=1;backgroundOutline=1;darkOpacity=0.05;darkOpacity2=0.1;fontSize=10;strokeColor=#000000;size=10;fillColor=#d0cee2;" vertex="1" parent="1">
                    <mxGeometry x="320" y="210" width="30" height="30" as="geometry"/>
                </mxCell>
                <mxCell id="1328" value="" style="shape=cube;whiteSpace=wrap;html=1;boundedLbl=1;backgroundOutline=1;darkOpacity=0.05;darkOpacity2=0.1;fontSize=10;strokeColor=#000000;size=10;fillColor=#d0cee2;" vertex="1" parent="1">
                    <mxGeometry x="300" y="210" width="30" height="30" as="geometry"/>
                </mxCell>
                <mxCell id="1329" value="" style="shape=cube;whiteSpace=wrap;html=1;boundedLbl=1;backgroundOutline=1;darkOpacity=0.05;darkOpacity2=0.1;fontSize=10;strokeColor=#000000;size=10;fillColor=#d0cee2;" vertex="1" parent="1">
                    <mxGeometry x="280" y="210" width="30" height="30" as="geometry"/>
                </mxCell>
                <mxCell id="1330" value="" style="shape=cube;whiteSpace=wrap;html=1;boundedLbl=1;backgroundOutline=1;darkOpacity=0.05;darkOpacity2=0.1;fontSize=10;strokeColor=#000000;size=10;fillColor=#d0cee2;" vertex="1" parent="1">
                    <mxGeometry x="340" y="190" width="30" height="30" as="geometry"/>
                </mxCell>
                <mxCell id="1331" value="" style="shape=cube;whiteSpace=wrap;html=1;boundedLbl=1;backgroundOutline=1;darkOpacity=0.05;darkOpacity2=0.1;fontSize=10;strokeColor=#000000;size=10;fillColor=#d0cee2;" vertex="1" parent="1">
                    <mxGeometry x="320" y="190" width="30" height="30" as="geometry"/>
                </mxCell>
                <mxCell id="1332" value="" style="shape=cube;whiteSpace=wrap;html=1;boundedLbl=1;backgroundOutline=1;darkOpacity=0.05;darkOpacity2=0.1;fontSize=10;strokeColor=#000000;size=10;fillColor=#d0cee2;" vertex="1" parent="1">
                    <mxGeometry x="300" y="190" width="30" height="30" as="geometry"/>
                </mxCell>
                <mxCell id="1333" value="" style="shape=cube;whiteSpace=wrap;html=1;boundedLbl=1;backgroundOutline=1;darkOpacity=0.05;darkOpacity2=0.1;fontSize=10;strokeColor=#000000;size=10;fillColor=#d0cee2;" vertex="1" parent="1">
                    <mxGeometry x="280" y="190" width="30" height="30" as="geometry"/>
                </mxCell>
                <mxCell id="1334" value="" style="shape=cube;whiteSpace=wrap;html=1;boundedLbl=1;backgroundOutline=1;darkOpacity=0.05;darkOpacity2=0.1;fontSize=10;strokeColor=#000000;size=10;fillColor=#d0cee2;" vertex="1" parent="1">
                    <mxGeometry x="340" y="170" width="30" height="30" as="geometry"/>
                </mxCell>
                <mxCell id="1335" value="" style="shape=cube;whiteSpace=wrap;html=1;boundedLbl=1;backgroundOutline=1;darkOpacity=0.05;darkOpacity2=0.1;fontSize=10;strokeColor=#000000;size=10;fillColor=#d0cee2;" vertex="1" parent="1">
                    <mxGeometry x="320" y="170" width="30" height="30" as="geometry"/>
                </mxCell>
                <mxCell id="1336" value="" style="shape=cube;whiteSpace=wrap;html=1;boundedLbl=1;backgroundOutline=1;darkOpacity=0.05;darkOpacity2=0.1;fontSize=10;strokeColor=#000000;size=10;fillColor=#d0cee2;" vertex="1" parent="1">
                    <mxGeometry x="300" y="170" width="30" height="30" as="geometry"/>
                </mxCell>
                <mxCell id="1337" value="" style="shape=cube;whiteSpace=wrap;html=1;boundedLbl=1;backgroundOutline=1;darkOpacity=0.05;darkOpacity2=0.1;fontSize=10;strokeColor=#000000;size=10;fillColor=#d0cee2;" vertex="1" parent="1">
                    <mxGeometry x="280" y="170" width="30" height="30" as="geometry"/>
                </mxCell>
                <mxCell id="1338" value="" style="shape=cube;whiteSpace=wrap;html=1;boundedLbl=1;backgroundOutline=1;darkOpacity=0.05;darkOpacity2=0.1;fontSize=10;strokeColor=#000000;size=10;fillColor=#b1ddf0;" vertex="1" parent="1">
                    <mxGeometry x="350" y="240" width="30" height="30" as="geometry"/>
                </mxCell>
                <mxCell id="1339" value="" style="shape=cube;whiteSpace=wrap;html=1;boundedLbl=1;backgroundOutline=1;darkOpacity=0.05;darkOpacity2=0.1;fontSize=10;strokeColor=#000000;size=10;fillColor=#b1ddf0;" vertex="1" parent="1">
                    <mxGeometry x="330" y="240" width="30" height="30" as="geometry"/>
                </mxCell>
                <mxCell id="1340" value="" style="shape=cube;whiteSpace=wrap;html=1;boundedLbl=1;backgroundOutline=1;darkOpacity=0.05;darkOpacity2=0.1;fontSize=10;strokeColor=#000000;size=10;fillColor=#b1ddf0;" vertex="1" parent="1">
                    <mxGeometry x="310" y="240" width="30" height="30" as="geometry"/>
                </mxCell>
                <mxCell id="1341" value="" style="shape=cube;whiteSpace=wrap;html=1;boundedLbl=1;backgroundOutline=1;darkOpacity=0.05;darkOpacity2=0.1;fontSize=10;strokeColor=#000000;size=10;fillColor=#b1ddf0;" vertex="1" parent="1">
                    <mxGeometry x="290" y="240" width="30" height="30" as="geometry"/>
                </mxCell>
                <mxCell id="1342" value="" style="shape=cube;whiteSpace=wrap;html=1;boundedLbl=1;backgroundOutline=1;darkOpacity=0.05;darkOpacity2=0.1;fontSize=10;strokeColor=#000000;size=10;fillColor=#b1ddf0;" vertex="1" parent="1">
                    <mxGeometry x="350" y="220" width="30" height="30" as="geometry"/>
                </mxCell>
                <mxCell id="1343" value="" style="shape=cube;whiteSpace=wrap;html=1;boundedLbl=1;backgroundOutline=1;darkOpacity=0.05;darkOpacity2=0.1;fontSize=10;strokeColor=#000000;size=10;fillColor=#b1ddf0;" vertex="1" parent="1">
                    <mxGeometry x="330" y="220" width="30" height="30" as="geometry"/>
                </mxCell>
                <mxCell id="1344" value="" style="shape=cube;whiteSpace=wrap;html=1;boundedLbl=1;backgroundOutline=1;darkOpacity=0.05;darkOpacity2=0.1;fontSize=10;strokeColor=#000000;size=10;fillColor=#b1ddf0;" vertex="1" parent="1">
                    <mxGeometry x="310" y="220" width="30" height="30" as="geometry"/>
                </mxCell>
                <mxCell id="1345" value="" style="shape=cube;whiteSpace=wrap;html=1;boundedLbl=1;backgroundOutline=1;darkOpacity=0.05;darkOpacity2=0.1;fontSize=10;strokeColor=#000000;size=10;fillColor=#b1ddf0;" vertex="1" parent="1">
                    <mxGeometry x="290" y="220" width="30" height="30" as="geometry"/>
                </mxCell>
                <mxCell id="1346" value="" style="shape=cube;whiteSpace=wrap;html=1;boundedLbl=1;backgroundOutline=1;darkOpacity=0.05;darkOpacity2=0.1;fontSize=10;strokeColor=#000000;size=10;fillColor=#b1ddf0;" vertex="1" parent="1">
                    <mxGeometry x="350" y="200" width="30" height="30" as="geometry"/>
                </mxCell>
                <mxCell id="1347" value="" style="shape=cube;whiteSpace=wrap;html=1;boundedLbl=1;backgroundOutline=1;darkOpacity=0.05;darkOpacity2=0.1;fontSize=10;strokeColor=#000000;size=10;fillColor=#b1ddf0;" vertex="1" parent="1">
                    <mxGeometry x="330" y="200" width="30" height="30" as="geometry"/>
                </mxCell>
                <mxCell id="1348" value="" style="shape=cube;whiteSpace=wrap;html=1;boundedLbl=1;backgroundOutline=1;darkOpacity=0.05;darkOpacity2=0.1;fontSize=10;strokeColor=#000000;size=10;fillColor=#b1ddf0;" vertex="1" parent="1">
                    <mxGeometry x="310" y="200" width="30" height="30" as="geometry"/>
                </mxCell>
                <mxCell id="1349" value="" style="shape=cube;whiteSpace=wrap;html=1;boundedLbl=1;backgroundOutline=1;darkOpacity=0.05;darkOpacity2=0.1;fontSize=10;strokeColor=#000000;size=10;fillColor=#b1ddf0;" vertex="1" parent="1">
                    <mxGeometry x="290" y="200" width="30" height="30" as="geometry"/>
                </mxCell>
                <mxCell id="1350" value="" style="shape=cube;whiteSpace=wrap;html=1;boundedLbl=1;backgroundOutline=1;darkOpacity=0.05;darkOpacity2=0.1;fontSize=10;strokeColor=#000000;size=10;fillColor=#b1ddf0;" vertex="1" parent="1">
                    <mxGeometry x="350" y="180" width="30" height="30" as="geometry"/>
                </mxCell>
                <mxCell id="1351" value="" style="shape=cube;whiteSpace=wrap;html=1;boundedLbl=1;backgroundOutline=1;darkOpacity=0.05;darkOpacity2=0.1;fontSize=10;strokeColor=#000000;size=10;fillColor=#b1ddf0;" vertex="1" parent="1">
                    <mxGeometry x="330" y="180" width="30" height="30" as="geometry"/>
                </mxCell>
                <mxCell id="1352" value="" style="shape=cube;whiteSpace=wrap;html=1;boundedLbl=1;backgroundOutline=1;darkOpacity=0.05;darkOpacity2=0.1;fontSize=10;strokeColor=#000000;size=10;fillColor=#b1ddf0;" vertex="1" parent="1">
                    <mxGeometry x="310" y="180" width="30" height="30" as="geometry"/>
                </mxCell>
                <mxCell id="1353" value="" style="shape=cube;whiteSpace=wrap;html=1;boundedLbl=1;backgroundOutline=1;darkOpacity=0.05;darkOpacity2=0.1;fontSize=10;strokeColor=#000000;size=10;fillColor=#b1ddf0;" vertex="1" parent="1">
                    <mxGeometry x="290" y="180" width="30" height="30" as="geometry"/>
                </mxCell>
                <mxCell id="1354" value="" style="shape=cube;whiteSpace=wrap;html=1;boundedLbl=1;backgroundOutline=1;darkOpacity=0.05;darkOpacity2=0.1;fontSize=10;strokeColor=#000000;size=10;fillColor=#b1ddf0;" vertex="1" parent="1">
                    <mxGeometry x="360" y="250" width="30" height="30" as="geometry"/>
                </mxCell>
                <mxCell id="1355" value="" style="shape=cube;whiteSpace=wrap;html=1;boundedLbl=1;backgroundOutline=1;darkOpacity=0.05;darkOpacity2=0.1;fontSize=10;strokeColor=#000000;size=10;fillColor=#b1ddf0;" vertex="1" parent="1">
                    <mxGeometry x="340" y="250" width="30" height="30" as="geometry"/>
                </mxCell>
                <mxCell id="1356" value="" style="shape=cube;whiteSpace=wrap;html=1;boundedLbl=1;backgroundOutline=1;darkOpacity=0.05;darkOpacity2=0.1;fontSize=10;strokeColor=#000000;size=10;fillColor=#b1ddf0;" vertex="1" parent="1">
                    <mxGeometry x="320" y="250" width="30" height="30" as="geometry"/>
                </mxCell>
                <mxCell id="1357" value="" style="shape=cube;whiteSpace=wrap;html=1;boundedLbl=1;backgroundOutline=1;darkOpacity=0.05;darkOpacity2=0.1;fontSize=10;strokeColor=#000000;size=10;fillColor=#b1ddf0;" vertex="1" parent="1">
                    <mxGeometry x="300" y="250" width="30" height="30" as="geometry"/>
                </mxCell>
                <mxCell id="1370" style="edgeStyle=none;html=1;fontSize=10;strokeColor=#000000;entryX=0;entryY=0;entryDx=0;entryDy=20;entryPerimeter=0;" edge="1" parent="1" source="1358" target="1107">
                    <mxGeometry relative="1" as="geometry">
                        <mxPoint x="450" y="300" as="targetPoint"/>
                    </mxGeometry>
                </mxCell>
                <mxCell id="1358" value="" style="shape=cube;whiteSpace=wrap;html=1;boundedLbl=1;backgroundOutline=1;darkOpacity=0.05;darkOpacity2=0.1;fontSize=10;strokeColor=#000000;size=10;fillColor=#b1ddf0;" vertex="1" parent="1">
                    <mxGeometry x="360" y="230" width="30" height="30" as="geometry"/>
                </mxCell>
                <mxCell id="1359" value="" style="shape=cube;whiteSpace=wrap;html=1;boundedLbl=1;backgroundOutline=1;darkOpacity=0.05;darkOpacity2=0.1;fontSize=10;strokeColor=#000000;size=10;fillColor=#b1ddf0;" vertex="1" parent="1">
                    <mxGeometry x="340" y="230" width="30" height="30" as="geometry"/>
                </mxCell>
                <mxCell id="1360" value="" style="shape=cube;whiteSpace=wrap;html=1;boundedLbl=1;backgroundOutline=1;darkOpacity=0.05;darkOpacity2=0.1;fontSize=10;strokeColor=#000000;size=10;fillColor=#b1ddf0;" vertex="1" parent="1">
                    <mxGeometry x="320" y="230" width="30" height="30" as="geometry"/>
                </mxCell>
                <mxCell id="1361" value="" style="shape=cube;whiteSpace=wrap;html=1;boundedLbl=1;backgroundOutline=1;darkOpacity=0.05;darkOpacity2=0.1;fontSize=10;strokeColor=#000000;size=10;fillColor=#b1ddf0;" vertex="1" parent="1">
                    <mxGeometry x="300" y="230" width="30" height="30" as="geometry"/>
                </mxCell>
                <mxCell id="1371" style="edgeStyle=none;html=1;fontSize=10;strokeColor=#000000;entryX=0;entryY=0;entryDx=0;entryDy=20;entryPerimeter=0;" edge="1" parent="1" source="1362" target="1071">
                    <mxGeometry relative="1" as="geometry">
                        <mxPoint x="440" y="190.00000000000006" as="targetPoint"/>
                    </mxGeometry>
                </mxCell>
                <mxCell id="1362" value="" style="shape=cube;whiteSpace=wrap;html=1;boundedLbl=1;backgroundOutline=1;darkOpacity=0.05;darkOpacity2=0.1;fontSize=10;strokeColor=#000000;size=10;fillColor=#b1ddf0;" vertex="1" parent="1">
                    <mxGeometry x="360" y="210" width="30" height="30" as="geometry"/>
                </mxCell>
                <mxCell id="1363" value="" style="shape=cube;whiteSpace=wrap;html=1;boundedLbl=1;backgroundOutline=1;darkOpacity=0.05;darkOpacity2=0.1;fontSize=10;strokeColor=#000000;size=10;fillColor=#b1ddf0;" vertex="1" parent="1">
                    <mxGeometry x="340" y="210" width="30" height="30" as="geometry"/>
                </mxCell>
                <mxCell id="1364" value="" style="shape=cube;whiteSpace=wrap;html=1;boundedLbl=1;backgroundOutline=1;darkOpacity=0.05;darkOpacity2=0.1;fontSize=10;strokeColor=#000000;size=10;fillColor=#b1ddf0;" vertex="1" parent="1">
                    <mxGeometry x="320" y="210" width="30" height="30" as="geometry"/>
                </mxCell>
                <mxCell id="1365" value="" style="shape=cube;whiteSpace=wrap;html=1;boundedLbl=1;backgroundOutline=1;darkOpacity=0.05;darkOpacity2=0.1;fontSize=10;strokeColor=#000000;size=10;fillColor=#b1ddf0;" vertex="1" parent="1">
                    <mxGeometry x="300" y="210" width="30" height="30" as="geometry"/>
                </mxCell>
                <mxCell id="1366" value="" style="shape=cube;whiteSpace=wrap;html=1;boundedLbl=1;backgroundOutline=1;darkOpacity=0.05;darkOpacity2=0.1;fontSize=10;strokeColor=#000000;size=10;fillColor=#b1ddf0;" vertex="1" parent="1">
                    <mxGeometry x="360" y="190" width="30" height="30" as="geometry"/>
                </mxCell>
                <mxCell id="1367" value="" style="shape=cube;whiteSpace=wrap;html=1;boundedLbl=1;backgroundOutline=1;darkOpacity=0.05;darkOpacity2=0.1;fontSize=10;strokeColor=#000000;size=10;fillColor=#b1ddf0;" vertex="1" parent="1">
                    <mxGeometry x="340" y="190" width="30" height="30" as="geometry"/>
                </mxCell>
                <mxCell id="1368" value="" style="shape=cube;whiteSpace=wrap;html=1;boundedLbl=1;backgroundOutline=1;darkOpacity=0.05;darkOpacity2=0.1;fontSize=10;strokeColor=#000000;size=10;fillColor=#b1ddf0;" vertex="1" parent="1">
                    <mxGeometry x="320" y="190" width="30" height="30" as="geometry"/>
                </mxCell>
                <mxCell id="1369" value="" style="shape=cube;whiteSpace=wrap;html=1;boundedLbl=1;backgroundOutline=1;darkOpacity=0.05;darkOpacity2=0.1;fontSize=10;strokeColor=#000000;size=10;fillColor=#b1ddf0;" vertex="1" parent="1">
                    <mxGeometry x="300" y="190" width="30" height="30" as="geometry"/>
                </mxCell>
            </root>
        </mxGraphModel>
    </diagram>
</mxfile>